<?xml version="1.0" encoding="UTF-8"?>
<!-- Generated by Pixelmator Pro 3.5.11 -->
<svg width="100" height="100" viewBox="0 0 100 100" xmlns="http://www.w3.org/2000/svg">
    <g id="Group">
        <g id="g1">
            <path id="Path" fill="none" stroke="none" d="M 0 0 L 100 0 L 100 100 L 0 100 Z"/>
        </g>
        <g id="g2">
            <path id="path1" fill="currentColor" stroke="none" d="M 93.280998 51.656998 L 93.280998 42.531998 C 93.280998 41.319 92.295998 40.331001 91.080002 40.331001 L 78.769997 40.331001 C 77.358002 40.331001 76.072998 41.167999 75.420998 42.660004 L 73.223 49.257004 C 72.869003 50.32 73.049004 51.500999 73.706001 52.412994 C 74.355003 53.315002 75.406998 53.856995 76.515999 53.856995 L 91.080002 53.856995 C 92.295998 53.856995 93.280998 52.869995 93.280998 51.656998 Z M 88.885002 49.456001 L 77.787003 49.456001 L 79.357002 44.733002 L 88.884003 44.733002 L 88.884003 49.456001 Z"/>
            <path id="path2" fill="currentColor" stroke="none" d="M 8.295 52.675995 C 8.295 52.675995 21.899 54.802002 22.049 54.802002 C 23.014999 54.802002 23.957001 54.399002 24.631001 53.686005 C 25.399 52.875999 25.731001 51.737999 25.527 50.647995 C 25.527 50.643005 25.527 50.637001 25.527 50.632004 L 24.204 43.809998 C 23.933001 42.446999 22.867001 41.362 21.351 41.024002 L 8.984 39.042999 C 8.351 38.93 7.701 39.124001 7.21 39.537003 C 6.719 39.956001 6.44 40.568001 6.44 41.212006 L 6.44 50.502998 C 6.44 51.587006 7.224 52.505005 8.295 52.675995 Z M 10.836 43.787994 L 20.004 45.252998 L 20.965 50.218002 L 10.837 48.624001 L 10.837 43.787994 Z"/>
            <path id="path3" fill="currentColor" stroke="none" d="M 42.448002 33.723999 L 40.645 25.694 L 45.331001 28.469002 C 46.316002 29.058998 47.583 28.785995 48.243 27.851997 L 51.812 22.839005 L 53.488998 28.056 C 53.819 29.091995 54.841999 29.714996 55.923 29.558998 L 59.487 29 L 55.601002 34.861 L 59.266998 37.287003 L 65.912003 27.265999 C 66.389999 26.541 66.400002 25.597 65.928001 24.867004 C 65.458 24.132004 64.599998 23.772003 63.737999 23.878998 L 57.098 24.919998 L 54.655998 17.32 C 54.401001 16.526001 53.722 15.945999 52.901001 15.817001 C 52.074001 15.698997 51.252998 16.042 50.77 16.719002 L 45.832001 23.653999 L 38.505001 19.311996 C 37.748001 18.861 36.800999 18.908997 36.09 19.425003 C 35.381001 19.940002 35.046001 20.826004 35.237 21.684998 L 38.157001 34.690002 L 42.448002 33.723999 Z"/>
            <path id="path4" fill="currentColor" stroke="none" d="M 93.828003 79.804001 L 69.884003 79.804001 C 71.228996 78.556 72.278 76.989998 72.867996 75.198997 L 94 75.198997 L 94 70.797997 L 73.343002 70.797997 C 72.847 65.157997 68.177002 60.707001 62.438999 60.707001 C 56.68 60.707001 51.987999 65.150002 51.484001 70.781998 L 48.540001 70.781998 C 46.993999 70.781998 45.735001 69.526001 45.735001 67.980003 L 45.735001 58.033997 C 45.735001 56.723999 46.583 55.639999 47.870998 55.328995 L 61.875 51.770004 C 63.990002 51.303001 65.691002 49.972 66.663002 48.028999 L 71.843002 37.718002 C 72.293999 36.783997 73.287003 36.160995 74.317001 36.160995 L 94 36.160995 L 94 31.760002 L 74.317001 31.760002 C 71.596001 31.760002 69.07 33.348999 67.900002 35.775002 L 62.734001 46.058998 C 62.358002 46.809998 61.733002 47.298996 60.861 47.492004 L 46.808998 51.061005 C 43.589001 51.845001 41.34 54.710999 41.34 58.033005 L 41.34 67.978996 C 41.34 71.950996 44.570999 75.181999 48.540001 75.181999 L 51.956001 75.181999 C 52.546001 76.980003 53.601002 78.552002 54.956001 79.803001 L 21.649 79.803001 C 22.586 78.947998 23.34 77.934998 23.938 76.778999 L 29.979 77.737 C 30.323 77.791 30.663 77.811996 31.004 77.811996 C 34.495998 77.811996 37.603001 75.262001 38.178001 71.731003 L 40.164001 59.224998 C 40.327999 58.070999 40.217999 56.831001 39.834 55.693001 L 33.542999 38.242996 C 32.750999 35.725998 30.525999 33.835999 27.878 33.433998 L 6.848 30.293999 L 6.848 34.641998 L 27.215 37.781998 C 28.221001 37.931999 29.059 38.630005 29.378 39.650002 L 35.681999 57.137001 C 35.832001 57.587997 35.877998 58.119003 35.816002 58.57 L 33.838001 71.032997 C 33.594002 72.530998 32.094002 73.641998 30.636 73.389 L 25.263 72.533997 C 25.451 69.931999 24.767 67.366997 23.202 65.224998 C 21.458 62.841999 18.921 61.296001 16.09 60.867004 C 12.902 60.308998 9.67 61.237 7.209 63.335999 C 6.718 63.755001 6.439 64.366997 6.439 65.011002 L 6.439 78.477997 C 6.439 78.972 5.999 79.804001 5.999 79.804001 L 5.999 84.205002 L 93.827003 84.205002 L 93.827003 79.804001 Z M 62.438999 65.108002 C 66.081001 65.108002 69.043999 68.092003 69.043999 71.764 C 69.043999 72.085999 68.998001 72.413002 68.955002 72.697998 C 68.507004 75.929001 65.705002 78.365997 62.438999 78.365997 C 59.143002 78.365997 56.317001 75.929001 55.863998 72.681999 C 55.826 72.403 55.780998 72.081001 55.780998 71.764 C 55.780998 68.092003 58.768002 65.108002 62.438999 65.108002 Z M 10.836 66.116997 C 12.178 65.268997 13.783 64.946999 15.398 65.209999 C 17.097 65.468002 18.608 66.396004 19.652 67.823997 C 20.693001 69.246002 21.128 70.974998 20.881001 72.697998 L 20.6 73.727997 C 19.688 76.808998 16.462 78.794998 13.284 78.290001 C 12.398 78.144997 11.566 77.828003 10.836 77.372002 L 10.836 66.116997 Z"/>
            <path id="path5" fill="currentColor" stroke="none" d="M 85.584 57.259995 L 92.376999 57.259995 L 92.376999 61.660999 L 85.584 61.660999 Z"/>
        </g>
    </g>
</svg>
