<svg xmlns="http://www.w3.org/2000/svg" viewBox="0 0 750 600"><g transform="translate(-44.8 -235.8)"><rect width="750" height="600" x="44.8" y="235.8" rx="37.5" ry="37.5" style="fill:#000;fill-opacity:1;fill-rule:nonzero;stroke:none"/><path d="M182.3 342v-87.5H776V817H494.8L63.5 748.3V342z" style="fill:#fff;fill-opacity:1;fill-rule:nonzero;stroke:none"/><g style="font-size:447.76119995px;font-style:normal;font-variant:normal;font-weight:400;font-stretch:normal;text-align:center;line-height:125%;letter-spacing:0;word-spacing:0;writing-mode:lr-tb;text-anchor:middle;fill:#000;fill-opacity:1;stroke:none;font-family:Roadgeek 2005 Series D;-inkscape-font-specification:Roadgeek 2005 Series D"><path d="M274.6 629.7c0 12.3-2.1 23.8-6.3 34.5a84 84 0 0 1-43.9 45.7 86.2 86.2 0 0 1-33.1 6.3 81.2 81.2 0 0 1-59.6-23.7 90.5 90.5 0 0 1-17.4-26.5 104.7 104.7 0 0 1-7.2-34h42.1a50.7 50.7 0 0 0 13 30.4 39.5 39.5 0 0 0 29 11.7 39 39 0 0 0 30-12.6 45 45 0 0 0 12.2-31.8c0-8-1-15.5-3.2-22.4-2-7.1-4.9-13.2-8.5-18.3a41.8 41.8 0 0 0-12.5-12.5 26 26 0 0 0-14.8-4.5h-21v-41.2h17.9a22 22 0 0 0 12-2.7 43 43 0 0 0 10-9c8.6-9.5 13-20.7 13-33.5 0-11.7-3.4-21-10-27.8a32.3 32.3 0 0 0-25-10.3c-9.6 0-17.2 2.8-22.8 8.5a38.1 38.1 0 0 0-9.9 23.3l-42-5.4a82.9 82.9 0 0 1 24.1-49.2 71 71 0 0 1 22.8-14 76.8 76.8 0 0 1 57.8.4A66.8 66.8 0 0 1 245 428a76.8 76.8 0 0 1 22 54.6c0 12.6-2.1 24.2-6.3 35-3.9 10.7-10.9 21.9-21 33.5a104.6 104.6 0 0 1 35 78.8M485 638.2v72.6h-43v-72.6H317.5v-30.4l124.5-197h43v187.1h18v40.3h-18m-43-152.6-71.6 112.3H442V485.6M723.2 452.9a275.5 275.5 0 0 0-35.8 52 424.1 424.1 0 0 0-28.2 64.8 396 396 0 0 0-17.5 67.6c-3.6 21.8-6 46.3-7.2 73.5h-42v-6.3c0-7.4.4-16.1 1.3-26 .9-9.8 2-20 3.6-30.4 1.8-10.8 3.7-21.5 5.8-32.2 2-11 4.5-21.5 7.1-31.4a667 667 0 0 1 10.3-34c4-11 8.1-21.8 12.6-32.3 4.8-10.4 10-20.9 15.7-31.3a541 541 0 0 1 19.7-34H555.7v-42.1h167.5v42" style="letter-spacing:16.04513359;font-family:Roadgeek 2005 Series C;-inkscape-font-specification:Roadgeek 2005 Series C"/></g><g style="font-size:93.28358459px;font-style:normal;font-variant:normal;font-weight:400;font-stretch:normal;text-align:center;line-height:125%;letter-spacing:0;word-spacing:0;writing-mode:lr-tb;text-anchor:middle;fill:#000;fill-opacity:1;stroke:none;font-family:Roadgeek 2005 Series E;-inkscape-font-specification:Roadgeek 2005 Series E"><path d="m319.2 348.3-6.2-14.8h-27.2l-6 14.8h-12.4l26.3-62.5h11.4l26.1 62.5h-12m-19.8-47-8.8 21.1h17.6l-8.8-21M381.5 348.3l-10-24.6h-16.8v24.6h-11.2v-62.5h28.8c2.3 0 4.2.2 5.8.5 1.7.4 3.3 1.1 4.9 2 3 1.7 5.3 4 7 6.9 1.8 3 2.7 6.2 2.7 9.7 0 3.6-.9 6.8-2.7 9.7a19.1 19.1 0 0 1-7.5 7l11.5 26.7h-12.5m0-43.4c0-2.4-.8-4.3-2.4-5.8a9.6 9.6 0 0 0-6.6-2.1h-17.8v15.6h17.8c2.8 0 5-.7 6.6-2.1a7.1 7.1 0 0 0 2.4-5.6M409 348.3v-62.5h11.3v62.5H409M436.3 348.3v-12.7l35.5-38.8h-33.6v-11h47.2v12.7L450.1 337h35.3v11.2h-49.1M550 316.7c0 4.9-.7 9.3-2 13.4-1 4-2.8 7.4-5 10.3-2.3 2.8-5 5-8.3 6.7a24 24 0 0 1-10.7 2.3c-4.6 0-8.6-1-12-2.8-3.2-2-6-4.4-8.1-7.5a33.5 33.5 0 0 1-4.9-10.4 47.6 47.6 0 0 1 .3-25.2c1.2-4 3-7.4 5.3-10.2 2.3-2.8 5-5 8.3-6.4a26.6 26.6 0 0 1 21.7 0c3.1 1.6 5.9 3.8 8.2 6.6 2.3 2.8 4 6.2 5.3 10.2 1.2 4 1.9 8.2 1.9 13m-11.2.2c0-6.6-1.3-11.7-3.9-15.4a12.4 12.4 0 0 0-10.9-5.6c-4.7 0-8.4 1.8-11 5.6-2.8 3.7-4 8.8-4 15.4 0 6.8 1.2 12 4 15.7 2.6 3.7 6.3 5.6 11 5.6a12.4 12.4 0 0 0 11.8-7 22 22 0 0 0 2.3-6.8c.4-2.5.7-5 .7-7.5M606.7 348.3l-29.8-43v43h-11v-62.5h11l28.7 41.2v-41.2h10.8v62.5h-9.7M680.2 348.3l-6.1-14.8h-27.3l-6 14.8h-12.3l26.3-62.5h11.4l26 62.5h-12m-19.7-47-8.8 21.1h17.5l-8.7-21" style="letter-spacing:1.56288195;font-family:Roadgeek 2005 Series E;-inkscape-font-specification:Roadgeek 2005 Series E"/></g></g></svg>
