<?xml version="1.0" encoding="UTF-8"?>
<!-- Generated by Pixelmator Pro 3.5.11 -->
<svg width="90" height="96" viewBox="0 0 90 96" xmlns="http://www.w3.org/2000/svg">
    <path id="Path" fill="currentColor" stroke="none" d="M 89 89.199997 L 78.800003 66.599998 C 78.099998 65 76.5 64 74.699997 64 L 70.199997 64 L 57 7 C 56.099998 3.099998 52.700001 0.5 48.799999 0.5 L 41.299999 0.5 C 37.299999 0.5 34 3.199997 33.099998 7 L 19.799999 64 L 15.299999 64 C 13.6 64 12 65 11.200001 66.599998 L 1 89.199997 C -0.3 92.099998 1.9 95.5 5.1 95.5 L 84.900002 95.5 C 88.099998 95.5 90.300003 92.199997 89 89.199997 Z M 33.200001 33.199997 C 36 34.300003 40.200001 35 45 35 C 49.799999 35 54 34.300003 56.799999 33.199997 L 59.5 44.599998 C 56.900002 46.199997 51.400002 47.400002 45.099998 47.400002 C 38.700001 47.400002 33.299999 46.199997 30.599998 44.599998 L 33.200001 33.199997 Z M 26.200001 63.5 C 29.599998 65.699997 36.700001 67.199997 45 67.199997 C 53.299999 67.199997 60.5 65.699997 63.800003 63.5 L 67 76.800003 C 62.900002 79.300003 54.700001 81 45 81 C 35.299999 81 27.099998 79.300003 23 76.800003 L 26.200001 63.5 Z M 41.299999 6.599998 L 48.799999 6.599998 C 49.900002 6.599998 50.900002 7.400002 51.099998 8.400002 L 53.700001 20 C 51.5 20.699997 48.400002 21.199997 45 21.199997 C 41.5 21.199997 38.400002 20.699997 36.200001 20 L 39 8.400002 C 39.200001 7.300003 40.200001 6.599998 41.299999 6.599998 Z"/>
</svg>
