<svg xmlns="http://www.w3.org/2000/svg" xmlns:xlink="http://www.w3.org/1999/xlink" xml:space="preserve" version="1.0" viewBox="0 0 600 600"><defs><path id="a" d="M80.8 0A375 375 0 0 0 300 0a375 375 0 0 0 219.2 0A375.1 375.1 0 0 1 300 600 375.1 375.1 0 0 1 80.8 0z"/></defs><g fill="#fff" stroke="#000" transform="translate(.5 .5) scale(.99834)"><use xlink:href="#a"/><use xlink:href="#a" stroke-linecap="round" stroke-linejoin="round"/></g><path fill="#003f87" d="M13 231.2c0-32.3 4.2-63.6 12-93.4h550c7.8 29.8 12 61.1 12 93.4 0 175-123 321-287 355.8A363.5 363.5 0 0 1 13 231.2z"/><path fill="#af1e2d" d="M28 125.3A370.6 370.6 0 0 1 83.7 14.6 390 390 0 0 0 300 13a389.8 389.8 0 0 0 216.3 1.6c24.3 33 43.3 70.4 55.7 110.7H28z"/><path fill="#fff" d="M175.7 440.4V238H153v-31.6h2.6a36.3 36.3 0 0 0 28.7-15.7h31.6v249.6h-40.2zM447 316a227 227 0 0 1-7 57 120.3 120.3 0 0 1-20.2 44c-13.9 18.5-34 27.9-60.3 27.9a80.4 80.4 0 0 1-43.6-10.8 79.5 79.5 0 0 1-28.3-34 168.6 168.6 0 0 1-12.7-38.9 218.4 218.4 0 0 1-4.8-45.2 216 216 0 0 1 7.3-57.4 140.6 140.6 0 0 1 19.9-44.3 70 70 0 0 1 26.6-21 90.6 90.6 0 0 1 37-7c16 0 29.5 3.6 40.7 10.8a85.8 85.8 0 0 1 28.7 34c5.2 11.1 9.3 24.2 12.3 39 3 15 4.4 30.2 4.4 45.9zm-39.4 0c0-14.2-1.3-27.3-3.8-39.3-2.5-12-6.2-22.3-11.2-30.8-4-6.4-8.5-11.1-13.5-14.1-5.1-3-11.4-4.7-18.9-5.2a35.5 35.5 0 0 0-24.2 6.7c-6.4 5-11.8 13-16 24.2-3.2 7.4-5.6 16.4-7.2 27a207.9 207.9 0 0 0 1.3 70.2 91.3 91.3 0 0 0 11.1 30.6 42 42 0 0 0 14.2 14.5 38.9 38.9 0 0 0 20.1 4.8 35 35 0 0 0 23-7.4c6-5 11.1-13 15.4-24.2a156 156 0 0 0 9-41.7c.4-5.3.7-10.4.7-15.3z" font-family="Roadgeek 2005 Series D" font-size="373.1" font-weight="400" style="text-align:center;line-height:125%" text-anchor="middle"/><path fill="#fff" d="M108.9 112.8V50.4h8.7v62.4H109zm50.7 0L140.3 71v41.8h-9V50.4h9L157.4 88V50.4h9v62.4h-6.8zm35.8-54v54h-9v-54h-11.3v-8.4h31.7v8.3h-11.4zm20 54V50.4h29.2v8.8h-20.4v15.7h13v8.6h-13V104H247v8.7h-31.7zm67.8 0-8.3-29.3h-8.5v29.3h-9V50.4H276a16.7 16.7 0 0 1 11.9 4.6c1.5 1.4 2.6 3.2 3.3 5.2.8 2.1 1.2 4.4 1.2 6.9 0 3.7-.7 6.9-2.2 9.5a12.5 12.5 0 0 1-6.7 5.6l9 30.6h-9.3zm.5-45.7c0-2.4-.8-4.4-2.3-5.8a8.1 8.1 0 0 0-5.8-2.1h-9.2v15.7h9.2c2.6 0 4.6-.7 6-2 1.4-1.3 2-3.3 2-5.8zm50.9 28.7a18.7 18.7 0 0 1-5.1 12.8 18.5 18.5 0 0 1-5.5 3.9 15 15 0 0 1-6.7 1.4 16.6 16.6 0 0 1-12.9-5.8 19.7 19.7 0 0 1-3.4-6.3c-.8-2.3-1.2-4.8-1.2-7.3h8.7c0 1.3.2 2.6.5 3.8a11 11 0 0 0 1.6 3.5 7.8 7.8 0 0 0 6.6 3.4 8.3 8.3 0 0 0 6.2-2.8 10.3 10.3 0 0 0 2.6-6.6 10 10 0 0 0-1-4.8c-.8-1.4-2-2.8-4-4.3l-.3-.5-.5-.5-2.8-1.8-6.8-4.6a17.8 17.8 0 0 1-5.7-6.1 16.3 16.3 0 0 1 7.8-22.6 14 14 0 0 1 6.2-1.3 15.6 15.6 0 0 1 11 4.6c1.5 1.4 2.6 3.1 3.4 5 .9 2 1.3 4.2 1.4 6.6H326c-.1-2.2-.9-4-2.2-5.2a7 7 0 0 0-5-2 8 8 0 0 0-5.3 2 6.8 6.8 0 0 0-2 5.2c0 1.6.3 2.9 1.1 4 .8 1 2.4 2.1 4.7 3.5 6 3.4 10.4 7 13.1 10.6 2.8 3.6 4.2 7.6 4.2 12.2zm26-37v54h-9.1v-54h-11.3v-8.4h31.7v8.3h-11.4zm45.8 54-4.3-17h-13.4l-4.1 17h-9L391 50.4h8.7l15.6 62.4h-9zM395.3 69l-4.4 18h9l-4.6-18zm44.2-10.3v54.1h-9v-54h-11.3v-8.4h31.7v8.3h-11.4zm20 54.1V50.4h29.2v8.8h-20.4v15.7h13v8.6h-13V104h22.8v8.7h-31.7z" font-family="Roadgeek 2005 Series C" font-size="93.2" font-weight="400" style="text-align:center;line-height:125%" text-anchor="middle"/></svg>
