<?xml version="1.0" encoding="UTF-8"?>
<!-- Generated by Pixelmator Pro 3.5.11 -->
<svg width="98" height="74" viewBox="0 0 98 74" xmlns="http://www.w3.org/2000/svg">
    <path id="Path" fill="currentColor" stroke="none" d="M 3.32 73 L 39.32 73 L 40.889999 52.489998 L 57.110001 52.489998 L 58.68 73 L 94.68 73 C 95.781265 72.996773 96.809258 72.44767 97.424278 71.534142 C 98.039307 70.620621 98.161324 69.461571 97.75 68.440002 L 71.879997 4.440002 C 70.985703 2.342529 68.920128 0.986504 66.639999 1 L 53.150002 1 L 54.150002 14.669998 L 43.799999 14.669998 L 44.799999 1 L 31.360001 1 C 29.055552 1.00325 26.983149 2.403305 26.120001 4.540001 L 0.25 68.540001 C -0.119455 69.550186 0.023387 70.676765 0.633268 71.562782 C 1.243149 72.448799 2.244483 72.984444 3.32 73 Z M 43.16 22.900002 L 54.84 22.900002 L 56.330002 42.309998 L 41.669998 42.309998 Z"/>
</svg>
